<?xml version="1.0" encoding="UTF-8"?>
<svg version="1.1" xmlns="http://www.w3.org/2000/svg" width="80" height="81">
<path d="M0 0 C7.39472037 3.45278772 12.60511934 12.87603217 17.55615234 19.25268555 C22.52403448 25.64894142 27.68200183 31.88494397 32.84375 38.125 C33.37709961 38.77082031 33.91044922 39.41664062 34.45996094 40.08203125 C35.47332419 41.29678846 36.49709891 42.50295335 37.53222656 43.69921875 C41.0078125 47.73412245 41.0078125 47.73412245 41.0078125 49.9375 C41.68360352 49.92178955 42.35939453 49.9060791 43.05566406 49.88989258 C46.12296147 49.82746133 49.19012509 49.78848353 52.2578125 49.75 C53.32128906 49.72486328 54.38476562 49.69972656 55.48046875 49.67382812 C56.50527344 49.66416016 57.53007813 49.65449219 58.5859375 49.64453125 C59.52856445 49.6288208 60.47119141 49.61311035 61.44238281 49.59692383 C64.49791961 50.00256466 65.84528542 50.75965137 68.0078125 52.9375 C68.74681496 58.84951971 68.74681496 58.84951971 66.87817383 61.60058594 C60.32387098 66.28553077 46.39810578 64.5028375 38.51855469 63.72949219 C31.93181508 62.24358236 28.89109773 58.37795476 25.24365234 52.97851562 C24.26034276 51.4054788 23.30218681 49.81641034 22.37109375 48.21191406 C20.31949943 44.78916108 17.83837413 41.77337283 15.3203125 38.6875 C14.43454807 37.55467351 13.55041399 36.42057022 12.66796875 35.28515625 C9.94609495 31.82802303 7.11311618 28.47215907 4.2578125 25.125 C3.35010961 24.05351315 2.44255273 22.9819026 1.53515625 21.91015625 C-0.04361457 20.05320943 -1.63306475 18.20522808 -3.23828125 16.37109375 C-6.25208502 12.78727478 -7.85881747 10.76439418 -8.6171875 6.0625 C-7.9921875 2.9375 -7.9921875 2.9375 -6.9296875 0.9375 C-4.52559282 -0.30332306 -2.6572498 -0.5336736 0 0 Z " fill="#FFFFFF" transform="translate(9.9921875,8.0625)"/>
<path d="M0 0 C1.9375 1.125 1.9375 1.125 3 3 C2.98390047 6.34467734 2.86997262 8.93026797 0.69750977 11.6015625 C-1.02973179 13.16260987 -2.81357197 14.55640931 -4.6875 15.9375 C-5.30044922 16.43056641 -5.91339844 16.92363281 -6.54492188 17.43164062 C-9.61906752 19.78207436 -11.4237933 20.93395526 -15.33984375 21.3828125 C-18 21 -18 21 -19.875 19.9375 C-21.69816131 16.79761108 -21.44642887 14.56771074 -21 11 C-19.20433752 8.60983261 -16.99981074 6.91863343 -14.625 5.125 C-13.72007813 4.39796875 -13.72007813 4.39796875 -12.796875 3.65625 C-7.94692718 -0.20215293 -6.11960413 -1.49867856 0 0 Z " fill="black" transform="translate(23,50)"/>
</svg>
